<?xml version="1.0" standalone="no"?>
<!DOCTYPE svg PUBLIC "-//W3C//DTD SVG 20010904//EN"
 "http://www.w3.org/TR/2001/REC-SVG-20010904/DTD/svg10.dtd">
<svg version="1.0" xmlns="http://www.w3.org/2000/svg"
 width="260.000000pt" height="260.000000pt" viewBox="0 0 260.000000 260.000000"
 preserveAspectRatio="xMidYMid meet">
<metadata>
Created by potrace 1.11, written by Peter Selinger 2001-2013
</metadata>
<g transform="translate(0.000000,260.000000) scale(0.100000,-0.100000)"
fill="#000000" stroke="none">
<path d="M437 2545 c-4 -8 7 -53 23 -100 l29 -86 -92 -109 c-79 -95 -96 -110
-122 -110 -53 0 -59 -11 -52 -85 5 -48 15 -81 34 -114 l28 -46 5 -925 5 -925
1005 0 1005 0 5 925 5 925 28 46 c19 33 29 66 34 114 7 74 1 85 -52 85 -26 0
-43 15 -122 110 l-92 109 29 86 c16 47 27 92 23 100 -8 22 -1718 22 -1726 0z
m1663 -48 c0 -8 -9 -40 -20 -72 -11 -32 -20 -64 -20 -72 0 -7 48 -69 106 -138
89 -106 110 -125 134 -125 27 0 28 -1 23 -42 -7 -56 -19 -78 -42 -78 -12 0
-96 84 -222 220 l-203 220 -556 0 -557 0 -202 -220 c-128 -139 -209 -220 -221
-220 -24 0 -36 22 -43 78 -5 41 -4 42 23 42 24 0 45 19 134 125 58 69 106 131
106 138 0 8 -9 40 -20 72 -11 32 -20 64 -20 72 0 11 137 13 800 13 663 0 800
-2 800 -13z m-1225 -255 c0 -75 -3 -138 -7 -139 -5 -2 -30 -3 -58 -3 l-50 0 0
140 0 140 58 0 57 0 0 -138z m175 -1 l0 -139 -74 -4 -73 -3 -6 123 c-7 169
-10 162 79 162 l74 0 0 -139z m135 92 c0 -27 -2 -91 -3 -143 l-2 -95 -54 0
-54 0 -4 120 c-5 170 -7 165 61 165 l57 0 -1 -47z m210 -94 l0 -141 -95 0 -95
0 0 141 0 141 95 0 95 0 0 -141z m137 119 c2 -13 2 -77 0 -143 l-4 -120 -54 0
-54 0 -2 95 c-1 52 -3 116 -3 143 l-1 47 57 0 c51 0 57 -2 61 -22z m171 2 c3
-10 3 -75 0 -142 l-6 -123 -73 3 -74 4 0 139 0 139 74 0 c65 0 74 -2 79 -20z
m137 -120 l0 -140 -50 0 c-27 0 -53 1 -57 3 -5 1 -8 64 -8 139 l0 138 58 0 57
0 0 -140z m-1102 23 l-3 -27 -30 26 -30 26 30 32 30 32 3 -31 c2 -17 2 -43 0
-58z m1172 12 c-7 -9 -22 -21 -32 -26 -16 -9 -18 -5 -18 48 l0 58 32 -32 c27
-27 30 -34 18 -48z m-1232 -87 c35 -15 61 -47 62 -75 0 -31 -11 -29 -45 7 -16
17 -34 30 -41 30 -7 0 -20 7 -28 16 -17 16 -13 57 8 83 9 12 12 8 14 -18 3
-24 10 -35 30 -43z m40 39 c12 -11 22 -29 22 -40 0 -18 -2 -19 -17 -5 -10 8
-26 18 -35 21 -11 4 -18 17 -18 32 0 28 8 27 48 -8z m1212 8 c0 -15 -7 -28
-17 -32 -10 -3 -26 -13 -35 -21 -16 -14 -18 -13 -18 6 0 16 50 72 66 72 2 0 4
-11 4 -25z m54 -27 c6 -28 -14 -58 -39 -58 -7 0 -25 -13 -38 -30 -30 -36 -47
-38 -47 -7 1 28 27 60 63 75 21 9 27 18 27 44 0 28 2 30 14 18 7 -8 16 -27 20
-42z m-1384 -44 c0 -8 15 -21 34 -29 34 -14 106 -89 106 -110 0 -6 -13 -24
-30 -40 l-30 -29 0 26 c0 68 -11 87 -71 124 -59 35 -59 35 -41 59 18 24 32 24
32 -1z m1433 0 c18 -22 18 -22 -41 -58 -61 -37 -72 -56 -72 -124 l0 -26 -30
29 c-16 16 -30 34 -30 40 0 21 79 103 105 109 15 4 30 17 36 33 5 14 11 24 12
22 1 -2 10 -14 20 -25z m-1491 -115 c7 -5 19 -9 25 -9 15 0 73 -97 73 -121 0
-9 -6 -21 -13 -27 -10 -8 -19 2 -42 45 -18 34 -42 64 -62 76 -18 10 -34 24
-34 30 -1 7 -2 19 -3 27 -1 8 5 23 14 33 14 18 15 17 21 -13 4 -18 13 -36 21
-41z m57 40 c52 -33 68 -64 59 -120 -3 -21 -7 -16 -33 31 -21 37 -38 56 -55
60 -18 4 -26 13 -28 33 -2 15 -1 27 2 27 2 0 27 -14 55 -31z m1459 4 c-2 -20
-10 -29 -28 -33 -17 -4 -34 -23 -55 -60 -26 -47 -30 -52 -33 -31 -8 55 7 87
56 119 59 38 64 38 60 5z m56 -26 c-1 -12 -3 -25 -3 -29 -1 -3 -16 -15 -34
-25 -20 -12 -44 -42 -62 -76 -23 -43 -32 -53 -42 -45 -7 6 -13 18 -13 27 0 25
59 121 74 121 23 0 46 29 46 57 0 25 1 25 18 10 10 -10 18 -27 16 -40z m-566
-14 c-137 -2 -359 -2 -495 0 -137 1 -25 2 247 2 272 0 384 -1 248 -2z m597 -3
c-3 -6 1 -13 9 -16 28 -11 17 -32 -41 -76 -56 -42 -58 -46 -63 -97 l-5 -53
-21 29 c-20 27 -21 32 -8 62 21 50 54 91 80 102 14 5 29 20 34 34 5 14 12 25
15 25 4 0 3 -5 0 -10z m-1641 -49 c26 -11 59 -52 80 -102 13 -30 12 -35 -8
-62 l-21 -29 -5 53 c-5 51 -7 55 -62 97 -62 47 -68 58 -40 78 14 11 18 10 24
-7 4 -11 18 -23 32 -28z m1284 -23 l3 -48 -49 0 c-39 0 -62 8 -108 35 -32 20
-76 38 -97 42 -20 3 -40 10 -43 15 -3 5 57 7 143 6 l148 -3 3 -47z m-1008 -8
l0 -49 -146 -151 -146 -150 -74 0 -74 0 0 35 0 35 73 1 72 0 145 164 c80 91
146 165 148 165 1 0 2 -22 2 -50z m1225 -155 l110 -124 73 0 72 -1 0 -35 0
-35 -74 0 -74 0 -146 150 -146 151 0 52 0 52 38 -43 c20 -23 87 -98 147 -167z
m-1603 133 c2 -23 11 -36 33 -48 38 -20 90 -117 74 -137 -18 -20 -25 -16 -44
27 -19 42 -41 66 -78 84 -16 9 -22 21 -23 46 -2 59 32 84 38 28z m86 -17 c39
-30 42 -36 42 -79 l-1 -47 -25 47 c-14 28 -37 54 -54 63 -22 11 -30 23 -30 41
0 20 3 24 13 17 6 -5 31 -24 55 -42z m1692 24 c0 -17 -9 -29 -30 -40 -17 -9
-40 -35 -54 -63 l-25 -47 -1 47 c0 45 2 49 53 87 28 23 53 41 55 41 1 0 2 -11
2 -25z m48 13 c5 -7 9 -29 8 -48 -1 -25 -7 -37 -23 -46 -37 -18 -59 -42 -78
-84 -19 -43 -26 -47 -44 -27 -16 20 36 117 74 137 22 12 31 25 33 48 3 34 13
40 30 20z m-1888 -53 c0 -8 -2 -15 -4 -15 -2 0 -6 7 -10 15 -3 8 -1 15 4 15 6
0 10 -7 10 -15z m1934 0 c-4 -8 -8 -15 -10 -15 -2 0 -4 7 -4 15 0 8 4 15 10
15 5 0 7 -7 4 -15z m-484 -502 l-1 -488 -21 43 c-16 33 -34 51 -74 74 -30 16
-54 33 -54 36 1 4 18 19 40 34 76 52 99 142 100 375 0 191 -13 273 -65 396 -6
15 -1 17 34 17 l41 0 0 -487z m-1357 392 c13 -22 28 -50 32 -62 6 -22 4 -23
-59 -23 l-66 0 0 79 0 78 34 -16 c18 -9 45 -34 59 -56z m1827 -5 l0 -80 -66 0
c-63 0 -65 1 -59 23 14 43 57 102 89 118 17 9 32 17 34 18 1 0 2 -35 2 -79z
m-1480 -588 l0 -659 -129 -91 c-72 -51 -132 -92 -135 -92 -4 0 -6 275 -6 611
l0 611 132 139 c72 76 133 139 135 139 1 0 3 -296 3 -658z m1310 -229 c0 -337
-2 -613 -6 -613 -3 0 -63 41 -135 92 l-129 91 0 661 1 661 134 -140 134 -140
1 -612z m-700 799 c60 -29 71 -79 67 -317 -3 -287 -10 -295 -218 -303 l-129
-5 0 322 0 321 123 0 c96 0 129 -4 157 -18z m-902 -359 l-3 -168 -30 -4 -30
-4 30 -6 30 -6 3 -163 2 -162 -30 0 c-16 0 -30 -4 -30 -10 0 -5 14 -10 30 -10
l30 0 0 -180 0 -180 -31 0 c-17 0 -28 -4 -24 -10 3 -6 17 -10 31 -10 23 0 24
-2 24 -80 l0 -80 -75 0 -75 0 0 180 0 180 25 0 c14 0 25 5 25 10 0 6 -11 10
-25 10 l-25 0 2 168 c3 137 6 166 17 164 8 -2 21 0 30 4 12 5 8 9 -14 13 l-30
6 -3 178 c-2 170 -2 177 17 177 11 0 23 5 26 10 4 6 -5 10 -19 10 -25 0 -26 2
-26 65 l0 65 75 0 75 0 -2 -167z m1772 102 c0 -63 -1 -65 -26 -65 -14 0 -23
-4 -19 -10 3 -5 15 -10 26 -10 19 0 19 -7 17 -177 l-3 -178 -30 -6 c-22 -4
-26 -8 -14 -13 9 -4 22 -6 30 -4 11 2 14 -27 17 -164 l2 -168 -25 0 c-14 0
-25 -4 -25 -10 0 -5 11 -10 25 -10 l25 0 0 -180 0 -180 -75 0 -75 0 0 80 c0
78 1 80 24 80 14 0 28 4 31 10 4 6 -7 10 -24 10 l-31 0 0 180 0 180 30 0 c17
0 30 5 30 10 0 6 -14 10 -30 10 l-30 0 2 163 3 162 30 4 30 4 -30 6 -30 6 -3
168 -2 167 75 0 75 0 0 -65z m-830 -592 c43 -48 52 -115 48 -336 -6 -291 -13
-300 -230 -305 l-138 -4 0 342 0 341 146 -3 146 -3 28 -32z m-640 -518 c0 -93
0 -95 -24 -95 -13 0 -82 -42 -165 -100 -141 -100 -142 -100 -201 -100 l-60 0
0 95 0 95 78 0 79 0 139 100 c76 54 142 99 147 100 4 0 7 -43 7 -95z m1173 -5
l140 -100 79 0 78 0 0 -95 0 -95 -60 0 c-59 0 -60 0 -201 100 -122 86 -147
100 -181 100 -32 0 -39 3 -34 15 3 8 8 46 12 83 6 74 10 92 20 92 3 0 70 -45
147 -100z m-1173 -220 l0 -100 -162 0 c-143 0 -160 2 -143 14 185 133 264 185
283 186 21 0 22 -3 22 -100z m1179 18 c64 -45 127 -90 140 -100 23 -18 18 -18
-245 -18 l-269 1 36 19 c47 24 115 101 129 146 11 31 15 34 52 34 35 0 58 -12
157 -82z"/>
<path d="M652 1562 l-72 -67 1 -245 c1 -135 4 -327 8 -428 l6 -184 78 51 77
51 -2 442 c-2 283 -7 442 -13 444 -5 2 -43 -27 -83 -64z m68 -201 l0 -219 -50
-31 c-28 -17 -52 -31 -55 -31 -3 0 -5 92 -5 204 l0 204 53 46 c28 25 53 46 55
46 1 0 2 -99 2 -219z m0 -430 l0 -179 -48 -31 c-27 -17 -52 -31 -55 -31 -4 0
-7 80 -7 178 l0 177 53 32 c28 17 53 32 55 32 1 1 2 -80 2 -178z"/>
<path d="M1857 1623 c-4 -3 -7 -204 -7 -445 l0 -438 78 -51 77 -51 6 159 c4
87 7 280 8 429 l1 272 -74 66 c-78 69 -79 70 -89 59z m131 -337 c1 -113 0
-206 -3 -206 -2 0 -27 14 -55 31 l-50 31 0 220 0 221 53 -45 52 -46 3 -206z
m2 -418 c0 -98 -3 -178 -7 -178 -3 0 -28 14 -55 31 l-48 31 0 179 0 178 55
-32 55 -32 0 -177z"/>
</g>
</svg>
