<svg width="28" height="23" xmlns="http://www.w3.org/2000/svg"><path d="M28 2.76c-1.042.394-2.214.789-3.386.92 1.172-.657 2.084-1.84 2.474-3.286-1.172.657-2.344 1.183-3.646 1.446C22.4.657 20.837 0 19.274 0c-3.255 0-5.73 2.629-5.73 5.914 0 .395 0 .92.13 1.315C8.856 6.966 4.558 4.6 1.693 1.05c-.39.92-.651 1.84-.651 2.892 0 2.103 1.042 3.811 2.605 4.863-.912 0-1.824-.263-2.605-.657 0 2.891 1.953 5.125 4.688 5.782-.52.132-1.042.132-1.563.132-.39 0-.781 0-1.041-.132.65 2.366 2.865 3.943 5.34 3.943-1.954 1.577-4.429 2.629-7.164 2.629-.52 0-.911 0-1.302-.132C2.605 22.08 5.6 23 8.856 23c10.679 0 16.41-8.937 16.41-16.56v-.789c.91-.657 1.953-1.84 2.734-2.891z" fill-rule="nonzero"/></svg>
