<svg width="24" height="24" xmlns="http://www.w3.org/2000/svg"><g fill-rule="nonzero"><path d="M11.867 2.145c3.2 0 3.6 0 4.8.134 1.2 0 1.733.268 2.266.403.534.268.934.536 1.334.938.4.402.666.805.933 1.34.133.403.4 1.074.4 2.146 0 1.207.133 1.61.133 4.827 0 3.218 0 3.62-.133 4.827 0 1.206-.267 1.743-.4 2.28-.267.535-.533.938-.933 1.34-.4.402-.8.67-1.334.938-.4.135-1.066.403-2.266.403s-1.6.134-4.8.134c-3.2 0-3.6 0-4.8-.134-1.2 0-1.734-.268-2.267-.403-.533-.268-.933-.536-1.333-.938-.4-.402-.667-.805-.934-1.34-.133-.403-.4-1.074-.4-2.28 0-1.207-.133-1.61-.133-4.827 0-3.218 0-3.62.133-4.827.134-1.072.267-1.743.534-2.145.266-.536.533-.939.933-1.34.4-.537.667-.805 1.333-.94.4-.268 1.067-.402 2.134-.402 1.333-.134 1.733-.134 4.8-.134zm0-2.145c-3.2 0-3.6 0-4.8.134-1.334 0-2.134.268-2.934.536-.8.269-1.466.67-2.133 1.341-.667.67-1.067 1.341-1.333 2.145-.4.805-.534 1.61-.534 2.95C0 8.313 0 8.716 0 11.933c0 3.218 0 3.62.133 4.96 0 1.342.267 2.146.534 2.95.266.805.666 1.475 1.333 2.146.667.67 1.333 1.072 2.133 1.34.8.269 1.6.537 2.934.537C8.4 23.866 8.8 24 12 24c3.2 0 3.6 0 4.933-.134 1.334 0 2.134-.268 2.934-.536.8-.269 1.466-.67 2.133-1.341.667-.67 1.067-1.341 1.333-2.145.267-.805.534-1.61.534-2.95S24 15.15 24 11.933s0-3.62-.133-4.96c0-1.342-.267-2.146-.534-2.95-.266-.805-.666-1.476-1.333-2.146-.667-.67-1.333-1.073-2.133-1.34-.8-.269-1.6-.537-2.934-.537h-5.066z"/><path d="M12 6c-3.26 0-6 2.74-6 6s2.74 6 6 6 6-2.74 6-6-2.609-6-6-6zm0 9.913c-2.087 0-3.913-1.696-3.913-3.913 0-2.087 1.696-3.913 3.913-3.913 2.087 0 3.913 1.696 3.913 3.913 0 2.217-1.696 3.913-3.913 3.913z"/><circle cx="18.5" cy="5.5" r="1.5"/></g></svg>
