<svg id="Layer_1" xmlns="http://www.w3.org/2000/svg" viewBox="0 0 67.72 78.44"><style>.st0{fill:none;stroke:#231f20;stroke-width:.5;stroke-linecap:round;stroke-linejoin:round;stroke-miterlimit:10}.st1{stroke-width:.15}.st1,.st2{fill:none;stroke:#231f20;stroke-linecap:round;stroke-linejoin:round;stroke-miterlimit:10}.st3{fill:none;stroke-width:.15}.st3,.st4,.st5{stroke:#231f20;stroke-miterlimit:10}.st4{fill:none;stroke-width:.75}.st5{stroke-width:.5}.st5,.st6,.st8{fill:none}.st8{stroke:#231f20;stroke-width:.75;stroke-linecap:round;stroke-linejoin:round;stroke-miterlimit:10}</style><switch><g><path class="st0" d="M58.31 13.15l-.29.28c-.06.06-.09.14-.06.22.15.45.52 2.01-1.56 2.22-.07.01-.14.04-.18.09-.26.32-1.36 1.83-2.12 3.93-.06.17-.18-.05-.32-.18l-.13-.13a.213.213 0 0 1-.07-.16l.2-3.79c0-.07.04-.13.11-.18l4.08-2.65c.11-.07.26-.06.35.03.08.09.09.23-.01.32zM62.13 17.6l-.39.44c-.07.08-.1.19-.06.29.18.46.56 1.8-1.35 2.01-.09.01-.17.05-.23.11-.27.29-1.24 1.68-1.93 3.59-.09.24-.28-.14-.45-.34-.05-.06-.08-.13-.07-.2l.07-3.14c0-.09.05-.17.13-.23l4.14-3.05.12.12c.12.11.12.28.02.4zM54.43 8.62l-.64.73s1.06 1.98-1.42 2.17L51 13.15l.01-2.4 3.12-2.47.3.34zM59.96 14.5l-.23.22c-.13.13-.19.3-.14.47.15.55.29 1.81-1.44 2.04-.16.02-.3.1-.39.22-.39.49-1.54 2.02-2.24 4.14M55.84 10.2l-.28.28c-.06.06-.08.14-.05.21.15.45.54 2.1-1.56 2.31-.07.01-.14.04-.18.09-.32.43-2.21 2.11-2.85 3.57"/><path class="st1" d="M61.62 17.34l-1.93-2.07M57.65 13.02l-2.18-2.44M53.69 8.62L51 5.7"/><path class="st0" d="M50.92 4.8s.07.83.07 1.21v8.85M59.48 25.99c.72-2.23 1.78-3.6 2.09-3.99.08-.1.2-.16.33-.17 1.89-.24 1.66-1.68 1.5-2.22a.37.37 0 0 1 .1-.37l.21-.25c.15-.15.07-.25-.07-.41"/><path class="st2" d="M49.62 20.02l9.4 9.63h5.56"/><path class="st0" d="M37.17 4.8v1.35s-.26 1.31 0 2.54v6.18M41.43 4.8v1.35s.26 1.31 0 2.54v6.18M46.81 4.8v1.35s.26 1.31 0 2.54v6.18"/><path class="st4" d="M50.16 16l9.42 10.54h4.98M33.75 16.18h15.5"/><path class="st1" d="M63.27 19.41h1.96"/><path class="st4" d="M63.76 18.85h1.69"/><path class="st3" d="M33.75 16.03h15.87"/><path class="st6" d="M54.98 44.89v1.24l-4.18-2.55v-1.25z"/><path d="M18 77.69V16.58h17.32c2.5 0 4.63.24 6.4.73 1.77.48 3.16 1.33 4.19 2.54 1.03 1.21 1.78 2.89 2.26 5.05.48 2.15.72 4.87.72 8.15 0 2.42-.09 4.4-.28 5.93-.18 1.53-.46 2.74-.83 3.63-.37.89-.85 1.57-1.43 2.06-.59.48-1.29.89-2.1 1.21v.48c1.1.48 2.02.97 2.76 1.45.73.48 1.29 1.21 1.65 2.18.37.97.62 2.33.77 4.08.15 1.75.22 4.13.22 7.14 0 3.28-.24 5.99-.72 8.11-.48 2.13-1.25 3.81-2.32 5.05-1.07 1.24-2.45 2.1-4.14 2.58-1.69.48-3.71.73-6.07.73H18zm15.66-34.15c1.1 0 2.02-.12 2.76-.36.73-.24 1.29-.71 1.65-1.41.37-.7.62-1.68.77-2.95.15-1.26.22-2.92.22-4.96 0-1.51-.02-2.72-.06-3.63-.04-.91-.09-1.67-.17-2.26-.07-.59-.17-1.08-.28-1.45-.11-.38-.24-.73-.39-1.05-.37-.75-.92-1.28-1.65-1.57-.74-.3-1.62-.44-2.65-.44h-6.18v20.1h5.98zm1 27.21c.95 0 1.76-.12 2.43-.36.66-.24 1.19-.74 1.6-1.49.4-.75.68-1.8.83-3.15.15-1.34.22-3.12.22-5.33 0-2.53-.09-4.52-.28-5.97-.18-1.45-.5-2.56-.94-3.31-.44-.75-1.01-1.24-1.71-1.45-.7-.21-1.6-.32-2.7-.32h-6.4v21.39h6.95z" fill="#231f20"/><path class="st8" d="M51.49 56.51l.14-27.11 4.2 3.73-.02 26.15z"/><path class="st2" d="M33.88 20.02h-.11 15.89v42.86M49.62 20.02v-3.99h.67v-.41h.45v-.35h.52v-.41H33.75"/><path class="st0" d="M59.08 40.94h1.75M59.08 51.7h1.75M62.7 34.4h1.79M62.35 46.24h2.34M60.74 63.49h-1.75M62.67 57.34h1.59"/><path class="st8" d="M55.86 47.02l-4.27-2.56"/><path class="st4" d="M33.75 4.8h17.17l13.01 14.05"/><path class="st0" d="M59.02 29.65v39.28"/><path class="st8" d="M64.69 76.38h-4.81l-8.66-6.09h-3"/><path class="st2" d="M48.38 62.88h1.28l9.4 6.6h5.2"/><path class="st0" d="M9.41 13.15l.29.28c.06.06.09.14.06.22-.15.45-.52 2.01 1.56 2.22.07.01.14.04.18.09.26.32 1.36 1.83 2.12 3.93.06.17.18-.05.32-.18l.13-.13c.05-.05.07-.1.07-.16l-.2-3.79c0-.07-.04-.13-.11-.18L9.75 12.8a.285.285 0 0 0-.35.03c-.08.09-.08.23.01.32zM5.59 17.6l.39.44c.07.08.1.19.06.29-.18.46-.56 1.8 1.35 2.01.09.01.17.05.23.11.27.29 1.24 1.68 1.93 3.59.08.24.27-.14.45-.34.05-.06.08-.13.07-.2L10 20.37c0-.09-.05-.17-.13-.23l-4.14-3.05-.12.11c-.12.11-.12.28-.02.4zM13.3 8.62l.64.73s-1.06 1.98 1.42 2.17l1.37 1.63-.01-2.4-3.12-2.48-.3.35zM7.76 14.5l.23.22c.13.13.19.3.14.47-.15.55-.29 1.81 1.44 2.04.16.02.3.1.39.22.39.49 1.54 2.02 2.24 4.14M11.88 10.2l.28.28c.06.06.08.14.05.21-.15.45-.54 2.1 1.56 2.31.07.01.14.04.18.09.32.43 2.21 2.11 2.85 3.57"/><path class="st1" d="M6.1 17.34l1.93-2.07M10.08 13.02l2.17-2.44M14.03 8.62l2.69-2.92"/><path class="st0" d="M16.8 4.8s-.07.83-.07 1.21v8.85M8.25 25.99c-.72-2.23-1.78-3.6-2.09-3.99-.08-.1-.2-.16-.33-.17-1.89-.24-1.66-1.68-1.5-2.22a.37.37 0 0 0-.1-.37L4 18.98c-.15-.15-.07-.25.07-.41"/><path class="st2" d="M18.1 20.02l-9.4 9.63H3.14"/><path class="st0" d="M30.55 4.8v1.35s.26 1.31 0 2.54v6.18M26.29 4.8v1.35s-.26 1.31 0 2.54v6.18M20.91 4.8v1.35s-.26 1.31 0 2.54v6.18"/><path class="st4" d="M17.56 16L8.14 26.54H3.17M33.97 16.18h-15.5"/><path class="st1" d="M4.45 19.41H2.49"/><path class="st4" d="M3.96 18.85H2.27"/><path class="st3" d="M33.97 16.03H18.1"/><path class="st6" d="M12.74 44.89v1.24l4.18-2.55v-1.25z"/><path class="st8" d="M16.23 56.51l-.14-27.11-4.19 3.73.01 26.15z"/><path class="st2" d="M33.84 20.02h.11-15.89v42.86M18.1 20.02v-3.99h-.66v-.41h-.46v-.35h-.52v-.41h17.51"/><path class="st0" d="M8.64 40.94H6.89M8.64 51.7H6.89M5.02 34.4H3.23M5.37 46.24H3.03M6.98 63.49h1.75"/><path fill="none" stroke="#231f20" stroke-width="1.5" stroke-linecap="round" stroke-linejoin="round" stroke-miterlimit="10" d="M33.97 77.69H3.03V62.88H3V20.82l-1.77-3.26v-1.75H.75V13.9h2.26l6.34-7.58L7.48.75 33.9.76h-.08L60.25.75l-1.88 5.57 6.34 7.58h2.26v1.91h-.47v1.75l-1.78 3.26v42.06h-.03v14.81H33.75"/><path class="st0" d="M5.05 57.34H3.46"/><path class="st8" d="M11.86 47.02l4.27-2.56"/><path class="st4" d="M33.97 4.8H16.8L3.79 18.85"/><path class="st0" d="M8.7 29.65v39.28"/><path class="st8" d="M3.03 76.38h4.81l8.66-6.09h3"/><path class="st2" d="M19.34 62.88h-1.28l-9.4 6.6H3.31"/><path class="st1" d="M16.72 5.38H51"/></g></switch></svg>