<?xml version="1.0" standalone="no"?>
<!DOCTYPE svg PUBLIC "-//W3C//DTD SVG 20010904//EN"
 "http://www.w3.org/TR/2001/REC-SVG-20010904/DTD/svg10.dtd">
<svg version="1.0" xmlns="http://www.w3.org/2000/svg"
 width="260.000000pt" height="260.000000pt" viewBox="0 0 260.000000 260.000000"
 preserveAspectRatio="xMidYMid meet">
<metadata>
Created by potrace 1.11, written by Peter Selinger 2001-2013
</metadata>
<g transform="translate(0.000000,260.000000) scale(0.100000,-0.100000)"
fill="#000000" stroke="none">
<path d="M437 2545 c-4 -8 7 -53 23 -100 l29 -87 -95 -113 c-63 -76 -100 -112
-110 -108 -8 3 -26 2 -40 -1 -26 -7 -27 -9 -22 -69 4 -42 15 -82 37 -124 l31
-62 0 -905 c0 -497 3 -911 6 -920 6 -14 103 -16 1004 -16 901 0 998 2 1004 16
3 9 6 423 6 920 l0 905 31 62 c22 42 33 82 37 124 5 60 4 62 -22 69 -14 3 -32
4 -40 1 -10 -4 -47 32 -110 108 l-95 113 29 87 c16 47 27 92 23 100 -8 22
-1718 22 -1726 0z m1673 -39 c0 -2 -11 -34 -25 -70 -14 -37 -25 -73 -25 -80 0
-7 48 -70 106 -140 89 -105 111 -126 134 -126 27 0 27 -1 23 -47 -5 -44 -25
-83 -44 -83 -4 0 -101 101 -216 225 l-208 225 -555 0 -555 0 -208 -225 c-115
-124 -212 -225 -216 -225 -18 0 -39 38 -44 83 -7 47 -6 47 22 47 25 0 44 19
135 126 58 70 106 132 106 139 0 11 -27 92 -45 138 -7 16 35 17 804 17 446 0
811 -2 811 -4z m-1235 -268 l0 -143 -55 0 -55 0 -3 143 -3 142 59 0 58 0 -1
-142z m175 -3 l0 -146 -77 3 -78 3 -3 143 -3 142 81 0 80 0 0 -145z m138 3
l-3 -143 -56 -3 -57 -3 -4 123 c-6 173 -8 168 63 168 l60 0 -3 -142z m207 0
l0 -143 -95 0 -95 0 0 143 -1 142 96 0 96 0 -1 -142z m137 120 c2 -13 2 -78 0
-146 l-4 -123 -57 3 -56 3 -3 143 -3 142 60 0 c53 0 59 -2 63 -22z m176 -120
l-3 -143 -77 -3 -78 -3 0 146 0 145 80 0 81 0 -3 -142z m130 0 l-3 -143 -55 0
-55 0 0 143 -1 142 58 0 59 0 -3 -142z m-1100 25 l-3 -27 -30 26 -30 26 30 32
30 32 3 -31 c2 -17 2 -43 0 -58z m1172 12 c-7 -9 -22 -21 -32 -26 -16 -9 -18
-5 -18 48 l0 58 32 -32 c27 -27 30 -34 18 -48z m-1232 -87 c35 -15 61 -47 62
-75 0 -35 -14 -34 -43 3 -16 19 -36 34 -46 34 -40 0 -53 57 -21 96 14 16 15
15 18 -15 3 -24 10 -35 30 -43z m40 39 c12 -11 22 -29 22 -40 0 -19 -1 -19
-18 -4 -10 10 -23 17 -29 17 -17 0 -34 26 -27 44 7 17 17 14 52 -17z m1212
-13 c-7 -7 -17 -14 -23 -14 -6 0 -19 -7 -29 -17 -17 -15 -18 -15 -18 5 0 11
14 32 32 47 28 23 32 25 40 10 6 -10 5 -21 -2 -31z m58 -10 c2 -32 -13 -54
-39 -54 -10 0 -30 -15 -46 -34 -29 -37 -43 -38 -43 -3 1 28 27 60 63 75 21 9
27 18 27 43 0 30 1 31 18 16 10 -9 19 -28 20 -43z m-1313 -99 c23 -18 47 -45
55 -59 12 -24 11 -28 -15 -57 -26 -27 -30 -28 -37 -12 -3 10 -7 34 -7 53 -1
32 -7 39 -61 74 -33 21 -60 41 -60 44 0 3 7 14 16 23 16 18 18 18 43 -7 14
-14 44 -40 66 -59z m1375 45 c0 -4 -27 -25 -60 -46 -54 -35 -60 -42 -61 -74 0
-19 -4 -43 -7 -53 -7 -16 -11 -15 -37 12 -26 29 -27 33 -15 57 8 14 31 40 53
57 21 18 50 44 65 59 25 24 28 25 45 10 9 -8 17 -18 17 -22z m-1402 -98 c6 -9
12 -39 12 -66 l-1 -51 -31 58 c-21 38 -39 59 -55 63 -28 7 -42 30 -36 55 5 17
10 16 52 -13 25 -17 52 -38 59 -46z m1411 27 c-5 -9 -19 -19 -32 -23 -16 -4
-34 -25 -55 -63 l-31 -58 -1 50 c0 61 4 67 66 109 42 29 50 31 55 17 4 -9 3
-23 -2 -32z m-1535 -1 c4 -17 16 -29 35 -36 21 -8 38 -26 55 -61 29 -56 31
-72 14 -89 -9 -9 -19 2 -43 46 -19 33 -44 63 -61 72 -37 19 -43 28 -40 56 3
24 29 63 32 48 1 -5 5 -21 8 -36z m1591 -18 c-1 -17 -4 -31 -6 -33 -2 -1 -17
-9 -33 -17 -17 -9 -42 -39 -61 -72 -24 -44 -34 -55 -43 -46 -17 17 -15 33 13
89 17 32 35 53 53 60 32 12 42 26 42 58 0 23 1 23 18 7 12 -10 18 -28 17 -46z
m-1648 -11 c2 -25 21 -49 37 -49 18 0 50 -38 75 -88 22 -44 20 -64 -13 -92
-14 -11 -16 -7 -16 38 0 50 0 50 -65 101 -36 28 -65 56 -65 61 0 6 10 15 23
20 12 5 18 9 14 9 -5 1 -5 6 -2 11 9 14 11 13 12 -11z m1678 -2 c0 -7 6 -12
14 -12 34 0 18 -27 -43 -75 -66 -52 -66 -52 -66 -102 0 -45 -2 -49 -16 -38
-33 28 -35 48 -13 92 25 50 57 88 75 88 16 0 35 24 37 49 1 21 12 19 12 -2z
m-592 6 c-139 -2 -367 -2 -505 0 -139 1 -26 2 252 2 278 0 391 -1 253 -2z
m235 -75 l3 -48 -59 0 c-43 0 -63 5 -73 17 -19 22 -108 63 -139 63 -14 0 -32
5 -40 10 -10 7 37 9 145 8 l160 -3 3 -47z m-1008 -8 l0 -50 -146 -150 -147
-150 -73 0 -74 0 0 35 0 34 72 3 72 3 146 163 c79 89 146 162 147 162 2 0 3
-23 3 -50z m1222 -147 l119 -133 69 0 70 0 0 -35 0 -35 -74 0 -73 0 -147 150
-146 150 0 52 1 53 31 -35 c17 -19 85 -95 150 -167z m-1600 125 c2 -23 11 -36
33 -48 42 -23 90 -112 75 -140 -12 -23 -30 -27 -30 -7 0 25 -59 105 -87 119
-21 10 -29 21 -31 46 -3 32 11 62 29 62 4 0 9 -14 11 -32z m86 -13 c39 -28 42
-33 42 -80 l0 -50 -30 52 c-17 29 -39 55 -52 59 -29 8 -37 21 -31 45 6 20 7
20 71 -26z m1695 -2 c-2 -6 -15 -14 -29 -17 -15 -4 -35 -25 -54 -59 l-30 -52
0 50 c1 49 2 51 53 88 45 33 52 35 58 20 3 -10 4 -23 2 -30z m46 33 c7 -8 11
-30 9 -48 -2 -25 -10 -36 -31 -46 -28 -14 -87 -94 -87 -119 0 -20 -18 -16 -30
7 -15 28 33 117 75 140 22 12 31 25 33 48 4 35 13 40 31 18z m-1885 -51 c-4
-8 -7 -15 -9 -15 -2 0 -5 7 -9 15 -3 9 0 15 9 15 9 0 12 -6 9 -15z m1930 0
c-4 -8 -7 -15 -9 -15 -2 0 -5 7 -9 15 -3 9 0 15 9 15 9 0 12 -6 9 -15z m-485
-507 c0 -389 -3 -486 -12 -462 -20 51 -39 72 -95 103 l-54 28 44 29 c79 53
107 151 108 379 0 173 -19 293 -65 398 -6 15 -1 17 34 17 l41 0 -1 -492z
m-1394 442 c15 0 75 -94 75 -117 0 -9 -20 -13 -65 -13 l-65 0 0 85 0 85 20
-20 c11 -11 27 -20 35 -20z m1865 -45 l0 -85 -65 0 c-41 0 -65 4 -65 11 0 6
12 34 27 61 18 34 37 54 60 63 18 8 33 19 33 24 0 6 2 11 5 11 3 0 5 -38 5
-85z m-1480 -594 l0 -659 -135 -95 -135 -96 0 618 0 618 131 136 c72 75 133
137 135 137 2 0 4 -296 4 -659z m1310 -232 l0 -618 -135 96 -135 95 0 662 1
661 134 -139 135 -139 0 -618z m-700 806 c59 -31 65 -56 65 -300 0 -240 -4
-259 -58 -299 -25 -19 -42 -21 -160 -21 l-132 0 -3 318 -2 317 130 0 c98 0
138 -4 160 -15z m-900 -365 l0 -170 -32 -2 -33 -1 33 -4 32 -4 0 -165 0 -164
-30 0 c-16 0 -30 -4 -30 -10 0 -5 14 -10 30 -10 l30 0 0 -180 0 -180 -32 -1
-33 -1 30 -7 30 -6 3 -83 3 -82 -76 0 -75 0 0 180 0 180 26 0 c14 0 23 4 19
10 -3 6 -15 10 -26 10 -18 0 -19 8 -19 170 l0 170 33 2 32 1 -32 4 -33 4 0
180 c0 171 1 179 19 179 11 0 23 5 26 10 4 6 -5 10 -19 10 -25 0 -26 2 -26 65
l0 65 75 0 75 0 0 -170z m1770 105 c0 -63 -1 -65 -26 -65 -14 0 -23 -4 -19
-10 3 -5 15 -10 26 -10 18 0 19 -8 19 -180 l0 -180 -32 -2 -33 -1 33 -4 32 -4
0 -170 c0 -161 -1 -169 -19 -169 -11 0 -23 -4 -26 -10 -4 -6 5 -10 19 -10 l26
0 0 -180 0 -180 -75 0 -76 0 3 82 3 83 30 6 30 7 -32 1 -33 1 0 180 0 180 30
0 c17 0 30 5 30 10 0 6 -13 10 -30 10 l-30 0 0 165 0 165 33 2 32 1 -32 4 -33
4 0 170 0 169 75 0 75 0 0 -65z m-851 -570 c39 -20 61 -80 73 -200 10 -106 3
-294 -13 -358 -6 -21 -23 -52 -39 -70 l-28 -32 -149 0 -148 0 -3 338 -2 337
140 0 c104 0 148 -4 169 -15z m-619 -535 c0 -97 -1 -100 -23 -100 -12 0 -85
-45 -164 -100 l-141 -100 -61 0 -61 0 0 95 0 95 78 0 77 1 145 103 c80 58 146
105 148 105 1 1 2 -44 2 -99z m1168 -5 l149 -105 77 0 76 0 0 -95 0 -95 -61 0
-61 0 -141 100 c-121 85 -148 100 -181 100 -35 0 -38 2 -32 23 3 12 9 57 13
100 3 42 7 77 9 77 2 0 70 -47 152 -105z m-1168 -225 l0 -100 -162 0 c-89 0
-159 3 -156 6 33 33 278 194 295 194 22 0 23 -3 23 -100z m1199 6 c73 -52 136
-97 139 -100 3 -3 -116 -6 -263 -6 l-269 0 45 28 c54 34 88 73 113 130 18 39
22 42 60 42 36 0 58 -12 175 -94z"/>
<path d="M663 1569 l-73 -63 0 -428 c0 -276 4 -428 10 -428 5 0 41 20 80 45
l70 45 -1 272 c-1 150 -4 351 -8 447 l-6 174 -72 -64z m57 -209 l0 -220 -41
-25 c-74 -47 -69 -60 -69 168 l0 205 51 46 c28 25 53 46 55 46 2 0 4 -99 4
-220z m3 -603 c-7 -11 -94 -67 -105 -67 -4 0 -8 80 -8 178 l0 177 53 30 52 31
7 -170 c3 -94 4 -175 1 -179z"/>
<path d="M1857 1403 c-4 -124 -7 -325 -7 -445 l0 -218 70 -45 c39 -25 75 -45
80 -45 6 0 10 152 10 428 l0 427 -63 56 c-34 30 -67 58 -73 62 -8 4 -13 -61
-17 -220z m96 118 l37 -35 0 -204 c0 -227 5 -214 -69 -167 l-41 25 0 221 c0
248 -7 234 73 160z m37 -653 c0 -98 -3 -178 -8 -178 -4 0 -30 15 -57 33 -57
37 -51 6 -47 257 l2 129 55 -32 55 -32 0 -177z"/>
</g>
</svg>
