<svg xmlns="http://www.w3.org/2000/svg" xmlns:xlink="http://www.w3.org/1999/xlink" width="67.72" height="176.64"><symbol id="logo-brooklyncello" viewBox="0 0 67.72 78.44"><style>.st0,.st1{stroke:#231f20;stroke-miterlimit:10}.st0{fill:none;stroke-linecap:round;stroke-linejoin:round;stroke-width:.5}.st1{stroke-width:.15}.st1,.st2{fill:none;stroke-linecap:round;stroke-linejoin:round}.st2,.st3,.st4{stroke:#231f20;stroke-miterlimit:10}.st3{fill:none;stroke-width:.15}.st4{stroke-width:.75}.st4,.st6,.st8{fill:none}.st8{stroke:#231f20;stroke-width:.75;stroke-linecap:round;stroke-linejoin:round;stroke-miterlimit:10}</style><switch><g><path class="st0" d="M58.31 13.15l-.29.28c-.06.06-.09.14-.06.22.15.45.52 2.01-1.56 2.22-.07.01-.14.04-.18.09-.26.32-1.36 1.83-2.12 3.93-.06.17-.18-.05-.32-.18l-.13-.13a.213.213 0 01-.07-.16l.2-3.79c0-.07.04-.13.11-.18l4.08-2.65c.11-.07.26-.06.35.03.08.09.09.23-.01.32zm3.82 4.45l-.39.44c-.07.08-.1.19-.06.29.18.46.56 1.8-1.35 2.01-.09.01-.17.05-.23.11-.27.29-1.24 1.68-1.93 3.59-.09.24-.28-.14-.45-.34-.05-.06-.08-.13-.07-.2l.07-3.14c0-.09.05-.17.13-.23l4.14-3.05.12.12c.12.11.12.28.02.4zm-7.7-8.98l-.64.73s1.06 1.98-1.42 2.17L51 13.15l.01-2.4 3.12-2.47.3.34zm5.53 5.88l-.23.22c-.13.13-.19.3-.14.47.15.55.29 1.81-1.44 2.04-.16.02-.3.1-.39.22-.39.49-1.54 2.02-2.24 4.14m.32-11.39l-.28.28c-.06.06-.08.14-.05.21.15.45.54 2.1-1.56 2.31-.07.01-.14.04-.18.09-.32.43-2.21 2.11-2.85 3.57"/><path class="st1" d="M61.62 17.34l-1.93-2.07m-2.04-2.25l-2.18-2.44m-1.78-1.96L51 5.7"/><path class="st0" d="M50.92 4.8s.07.83.07 1.21v8.85m8.49 11.13c.72-2.23 1.78-3.6 2.09-3.99.08-.1.2-.16.33-.17 1.89-.24 1.66-1.68 1.5-2.22a.37.37 0 01.1-.37l.21-.25c.15-.15.07-.25-.07-.41"/><path class="st2" d="M49.62 20.02l9.4 9.63h5.56"/><path class="st0" d="M37.17 4.8v1.35s-.26 1.31 0 2.54v6.18M41.43 4.8v1.35s.26 1.31 0 2.54v6.18M46.81 4.8v1.35s.26 1.31 0 2.54v6.18"/><path class="st4" d="M50.16 16l9.42 10.54h4.98M33.75 16.18h15.5"/><path class="st1" d="M63.27 19.41h1.96"/><path class="st4" d="M63.76 18.85h1.69"/><path class="st3" d="M33.75 16.03h15.87"/><path class="st6" d="M54.98 44.89v1.24l-4.18-2.55v-1.25z"/><path d="M18 77.69V16.58h17.32c2.5 0 4.63.24 6.4.73 1.77.48 3.16 1.33 4.19 2.54 1.03 1.21 1.78 2.89 2.26 5.05.48 2.15.72 4.87.72 8.15 0 2.42-.09 4.4-.28 5.93-.18 1.53-.46 2.74-.83 3.63-.37.89-.85 1.57-1.43 2.06-.59.48-1.29.89-2.1 1.21v.48c1.1.48 2.02.97 2.76 1.45.73.48 1.29 1.21 1.65 2.18.37.97.62 2.33.77 4.08.15 1.75.22 4.13.22 7.14 0 3.28-.24 5.99-.72 8.11-.48 2.13-1.25 3.81-2.32 5.05-1.07 1.24-2.45 2.1-4.14 2.58-1.69.48-3.71.73-6.07.73H18zm15.66-34.15c1.1 0 2.02-.12 2.76-.36.73-.24 1.29-.71 1.65-1.41.37-.7.62-1.68.77-2.95.15-1.26.22-2.92.22-4.96 0-1.51-.02-2.72-.06-3.63-.04-.91-.09-1.67-.17-2.26-.07-.59-.17-1.08-.28-1.45-.11-.38-.24-.73-.39-1.05-.37-.75-.92-1.28-1.65-1.57-.74-.3-1.62-.44-2.65-.44h-6.18v20.1h5.98zm1 27.21c.95 0 1.76-.12 2.43-.36.66-.24 1.19-.74 1.6-1.49.4-.75.68-1.8.83-3.15.15-1.34.22-3.12.22-5.33 0-2.53-.09-4.52-.28-5.97-.18-1.45-.5-2.56-.94-3.31-.44-.75-1.01-1.24-1.71-1.45-.7-.21-1.6-.32-2.7-.32h-6.4v21.39h6.95z" fill="#231f20"/><path class="st8" d="M51.49 56.51l.14-27.11 4.2 3.73-.02 26.15z"/><path class="st2" d="M33.88 20.02h-.11 15.89v42.86m-.04-42.86v-3.99h.67v-.41h.45v-.35h.52v-.41H33.75"/><path class="st0" d="M59.08 40.94h1.75M59.08 51.7h1.75m1.87-17.3h1.79m-2.14 11.84h2.34m-3.95 17.25h-1.75m3.68-6.15h1.59"/><path class="st8" d="M55.86 47.02l-4.27-2.56"/><path class="st4" d="M33.75 4.8h17.17l13.01 14.05"/><path class="st0" d="M59.02 29.65v39.28"/><path class="st8" d="M64.69 76.38h-4.81l-8.66-6.09h-3"/><path class="st2" d="M48.38 62.88h1.28l9.4 6.6h5.2"/><path class="st0" d="M9.41 13.15l.29.28c.06.06.09.14.06.22-.15.45-.52 2.01 1.56 2.22.07.01.14.04.18.09.26.32 1.36 1.83 2.12 3.93.06.17.18-.05.32-.18l.13-.13c.05-.05.07-.1.07-.16l-.2-3.79c0-.07-.04-.13-.11-.18L9.75 12.8a.285.285 0 00-.35.03c-.08.09-.08.23.01.32zM5.59 17.6l.39.44c.07.08.1.19.06.29-.18.46-.56 1.8 1.35 2.01.09.01.17.05.23.11.27.29 1.24 1.68 1.93 3.59.08.24.27-.14.45-.34.05-.06.08-.13.07-.2L10 20.37c0-.09-.05-.17-.13-.23l-4.14-3.05-.12.11c-.12.11-.12.28-.02.4zm7.71-8.98l.64.73s-1.06 1.98 1.42 2.17l1.37 1.63-.01-2.4-3.12-2.48-.3.35zM7.76 14.5l.23.22c.13.13.19.3.14.47-.15.55-.29 1.81 1.44 2.04.16.02.3.1.39.22.39.49 1.54 2.02 2.24 4.14m-.32-11.39l.28.28c.06.06.08.14.05.21-.15.45-.54 2.1 1.56 2.31.07.01.14.04.18.09.32.43 2.21 2.11 2.85 3.57"/><path class="st1" d="M6.1 17.34l1.93-2.07m2.05-2.25l2.17-2.44m1.78-1.96l2.69-2.92"/><path class="st0" d="M16.8 4.8s-.07.83-.07 1.21v8.85M8.25 25.99c-.72-2.23-1.78-3.6-2.09-3.99-.08-.1-.2-.16-.33-.17-1.89-.24-1.66-1.68-1.5-2.22a.37.37 0 00-.1-.37L4 18.98c-.15-.15-.07-.25.07-.41"/><path class="st2" d="M18.1 20.02l-9.4 9.63H3.14"/><path class="st0" d="M30.55 4.8v1.35s.26 1.31 0 2.54v6.18M26.29 4.8v1.35s-.26 1.31 0 2.54v6.18M20.91 4.8v1.35s-.26 1.31 0 2.54v6.18"/><path class="st4" d="M17.56 16L8.14 26.54H3.17m30.8-10.36h-15.5"/><path class="st1" d="M4.45 19.41H2.49"/><path class="st4" d="M3.96 18.85H2.27"/><path class="st3" d="M33.97 16.03H18.1"/><path class="st6" d="M12.74 44.89v1.24l4.18-2.55v-1.25z"/><path class="st8" d="M16.23 56.51l-.14-27.11-4.19 3.73.01 26.15z"/><path class="st2" d="M33.84 20.02h.11-15.89v42.86m.04-42.86v-3.99h-.66v-.41h-.46v-.35h-.52v-.41h17.51"/><path class="st0" d="M8.64 40.94H6.89M8.64 51.7H6.89M5.02 34.4H3.23m2.14 11.84H3.03m3.95 17.25h1.75"/><path fill="none" stroke="#231f20" stroke-width="1.5" stroke-linecap="round" stroke-linejoin="round" stroke-miterlimit="10" d="M33.97 77.69H3.03V62.88H3V20.82l-1.77-3.26v-1.75H.75V13.9h2.26l6.34-7.58L7.48.75 33.9.76h-.08L60.25.75l-1.88 5.57 6.34 7.58h2.26v1.91h-.47v1.75l-1.78 3.26v42.06h-.03v14.81H33.75"/><path class="st0" d="M5.05 57.34H3.46"/><path class="st8" d="M11.86 47.02l4.27-2.56"/><path class="st4" d="M33.97 4.8H16.8L3.79 18.85"/><path class="st0" d="M8.7 29.65v39.28"/><path class="st8" d="M3.03 76.38h4.81l8.66-6.09h3"/><path class="st2" d="M19.34 62.88h-1.28l-9.4 6.6H3.31"/><path class="st1" d="M16.72 5.38H51"/></g></switch></symbol><symbol id="icon-twitter" viewBox="0 0 28 23"><path d="M28 2.76c-1.042.394-2.214.789-3.386.92 1.172-.657 2.084-1.84 2.474-3.286-1.172.657-2.344 1.183-3.646 1.446C22.4.657 20.837 0 19.274 0c-3.255 0-5.73 2.629-5.73 5.914 0 .395 0 .92.13 1.315C8.856 6.966 4.558 4.6 1.693 1.05c-.39.92-.651 1.84-.651 2.892 0 2.103 1.042 3.811 2.605 4.863-.912 0-1.824-.263-2.605-.657 0 2.891 1.953 5.125 4.688 5.782-.52.132-1.042.132-1.563.132-.39 0-.781 0-1.041-.132.65 2.366 2.865 3.943 5.34 3.943-1.954 1.577-4.429 2.629-7.164 2.629-.52 0-.911 0-1.302-.132C2.605 22.08 5.6 23 8.856 23c10.679 0 16.41-8.937 16.41-16.56v-.789c.91-.657 1.953-1.84 2.734-2.891z"/></symbol><symbol id="icon-menu" viewBox="0 0 10 9.1"><path d="M0 0h10v1H0zm0 4h10v1H0zm0 4h10v1H0z"/></symbol><symbol id="icon-menu-close" viewBox="0 0 10 9.1"><path d="M1.11 7.682L8.183.611l.707.707L1.818 8.39z"/><path d="M1.818.61l7.071 7.072-.707.707L1.11 1.318z"/></symbol><symbol id="icon-instagram" viewBox="0 0 24 24"><path d="M11.867 2.145c3.2 0 3.6 0 4.8.134 1.2 0 1.733.268 2.266.403.534.268.934.536 1.334.938.4.402.666.805.933 1.34.133.403.4 1.074.4 2.146 0 1.207.133 1.61.133 4.827 0 3.218 0 3.62-.133 4.827 0 1.206-.267 1.743-.4 2.28-.267.535-.533.938-.933 1.34-.4.402-.8.67-1.334.938-.4.135-1.066.403-2.266.403s-1.6.134-4.8.134c-3.2 0-3.6 0-4.8-.134-1.2 0-1.734-.268-2.267-.403-.533-.268-.933-.536-1.333-.938-.4-.402-.667-.805-.934-1.34-.133-.403-.4-1.074-.4-2.28 0-1.207-.133-1.61-.133-4.827 0-3.218 0-3.62.133-4.827.134-1.072.267-1.743.534-2.145.266-.536.533-.939.933-1.34.4-.537.667-.805 1.333-.94.4-.268 1.067-.402 2.134-.402 1.333-.134 1.733-.134 4.8-.134zm0-2.145c-3.2 0-3.6 0-4.8.134-1.334 0-2.134.268-2.934.536-.8.269-1.466.67-2.133 1.341-.667.67-1.067 1.341-1.333 2.145-.4.805-.534 1.61-.534 2.95C0 8.313 0 8.716 0 11.933c0 3.218 0 3.62.133 4.96 0 1.342.267 2.146.534 2.95.266.805.666 1.475 1.333 2.146.667.67 1.333 1.072 2.133 1.34.8.269 1.6.537 2.934.537C8.4 23.866 8.8 24 12 24c3.2 0 3.6 0 4.933-.134 1.334 0 2.134-.268 2.934-.536.8-.269 1.466-.67 2.133-1.341.667-.67 1.067-1.341 1.333-2.145.267-.805.534-1.61.534-2.95S24 15.15 24 11.933s0-3.62-.133-4.96c0-1.342-.267-2.146-.534-2.95-.266-.805-.666-1.476-1.333-2.146-.667-.67-1.333-1.073-2.133-1.34-.8-.269-1.6-.537-2.934-.537h-5.066z"/><path d="M12 6c-3.26 0-6 2.74-6 6s2.74 6 6 6 6-2.74 6-6-2.609-6-6-6zm0 9.913c-2.087 0-3.913-1.696-3.913-3.913 0-2.087 1.696-3.913 3.913-3.913 2.087 0 3.913 1.696 3.913 3.913 0 2.217-1.696 3.913-3.913 3.913z"/><circle cx="18.5" cy="5.5" r="1.5"/></symbol><symbol id="icon-facebook" viewBox="0 0 12 23"><path d="M7.586 5.948c0-1.057.276-1.85 1.793-1.85h2.345l.138-3.834S10.76 0 8.69 0C4.552 0 2.759 2.38 2.759 5.023v3.701H0v4.23h2.759V23h4.965V12.954h4L12 8.989H7.586v-3.04z"/></symbol><use xlink:href="#icon-facebook" width="12" height="23"/><use xlink:href="#icon-instagram" y="25" width="24" height="24"/><use xlink:href="#icon-menu-close" y="51" width="10" height="9.1"/><use xlink:href="#icon-menu" y="62.1" width="10" height="9.1"/><use xlink:href="#icon-twitter" y="73.2" width="28" height="23"/><use xlink:href="#logo-brooklyncello" y="98.2" width="67.72" height="78.44"/></svg>